<svg version="1.1" xmlns="http://www.w3.org/2000/svg" viewBox="0 0 1455.452774047852 941.194027539372" width="1455.452774047852" height="941.194027539372" filter="invert(93%) hue-rotate(180deg)">
  <!-- svg-source:excalidraw -->
  
  <defs>
    <style class="style-fonts">
      @font-face {
        font-family: "Virgil";
        src: url("https://excalidraw.com/Virgil.woff2");
      }
      @font-face {
        font-family: "Cascadia";
        src: url("https://excalidraw.com/Cascadia.woff2");
      }
      @font-face {
        font-family: "Assistant";
        src: url("https://excalidraw.com/Assistant-Regular.woff2");
      }
    </style>
    
  </defs>
  <g stroke-linecap="round" transform="translate(419.6660427642005 328.694027539372) rotate(0 307.5 301.25)"><path d="M538.23 101.94 C556.43 115.15, 569.17 140.13, 579.87 160.21 C590.57 180.3, 596.61 201.27, 602.42 222.44 C608.23 243.62, 613.39 264.74, 614.73 287.26 C616.07 309.78, 614.48 335.59, 610.46 357.55 C606.44 379.5, 599.67 398.46, 590.63 419 C581.58 439.53, 569.54 462.25, 556.2 480.74 C542.85 499.23, 527.92 515.34, 510.56 529.95 C493.2 544.56, 472.42 558.22, 452.05 568.42 C431.68 578.61, 410.2 585.4, 388.34 591.11 C366.48 596.83, 343.73 601.89, 320.91 602.73 C298.09 603.57, 273.88 600.45, 251.41 596.17 C228.93 591.88, 206.95 585.38, 186.07 577.02 C165.18 568.65, 144.43 558.94, 126.1 545.97 C107.77 533.01, 90.7 516.42, 76.06 499.22 C61.43 482.03, 49.42 462.52, 38.3 442.8 C27.19 423.08, 16 402.34, 9.37 380.92 C2.74 359.49, -0.62 336.37, -1.5 314.25 C-2.38 292.13, -0.2 270.05, 4.09 248.22 C8.39 226.38, 15.38 204.11, 24.27 183.26 C33.15 162.41, 43.99 141.49, 57.41 123.12 C70.84 104.76, 87.18 87.56, 104.83 73.08 C122.49 58.61, 142.83 46.47, 163.37 36.29 C183.91 26.12, 206.48 18.08, 228.08 12.06 C249.68 6.05, 270.71 1.64, 292.97 0.2 C315.24 -1.24, 339.14 -0.5, 361.69 3.41 C384.24 7.32, 407.24 14.78, 428.27 23.67 C449.29 32.56, 464.81 37.83, 487.86 56.72 C510.92 75.61, 551.32 117.65, 566.61 137 C581.9 156.35, 584.51 170.44, 579.61 172.82 M378.85 6.68 C401.28 7.83, 425.84 24.79, 446.94 34.85 C468.04 44.91, 487.95 52.79, 505.47 67.04 C522.99 81.29, 538.23 102.15, 552.06 120.34 C565.9 138.52, 579.43 156.01, 588.49 176.14 C597.55 196.28, 602.47 218.96, 606.41 241.16 C610.36 263.36, 612.16 287.05, 612.15 309.36 C612.14 331.67, 610.93 353.8, 606.37 375.02 C601.82 396.24, 595.56 417.16, 584.8 436.7 C574.04 456.24, 556.77 474.57, 541.81 492.27 C526.85 509.98, 512.85 528.95, 495.04 542.93 C477.24 556.92, 455.24 567.7, 434.97 576.17 C414.7 584.64, 395.06 589.67, 373.41 593.73 C351.76 597.8, 328.64 600.07, 305.07 600.57 C281.5 601.07, 254.99 601.45, 231.99 596.71 C208.98 591.98, 187.3 582.5, 167.05 572.15 C146.8 561.8, 127.44 548.91, 110.49 534.63 C93.54 520.35, 79.42 504.19, 65.33 486.47 C51.24 468.74, 35.9 448.4, 25.94 428.28 C15.97 408.16, 9.73 387.91, 5.55 365.72 C1.36 343.54, 0.51 318.05, 0.83 295.17 C1.16 272.28, 2.14 249.88, 7.49 228.41 C12.83 206.93, 22.51 185.79, 32.9 166.31 C43.28 146.83, 55.11 129.22, 69.79 111.52 C84.46 93.82, 102.75 74.31, 120.96 60.11 C139.17 45.91, 158.33 35.62, 179.04 26.31 C199.75 16.99, 222.55 8.84, 245.25 4.22 C267.95 -0.4, 292.79 -2.48, 315.22 -1.43 C337.64 -0.38, 368.86 7.79, 379.8 10.52 C390.74 13.25, 382.36 10.21, 380.85 14.95" stroke="#1971c2" stroke-width="4" fill="none"></path></g><g stroke-linecap="round" transform="translate(200.8931817642001 593.4440274341089) rotate(0 45.49644939198606 46)"><path d="M18.53 11.04 C24.18 6.04, 31.41 2.09, 39.36 0.9 C47.31 -0.29, 58.57 -0.07, 66.24 3.9 C73.91 7.88, 81.13 17.58, 85.36 24.73 C89.58 31.87, 91.99 38.5, 91.59 46.78 C91.19 55.07, 87.59 67.24, 82.96 74.45 C78.33 81.66, 71.54 87, 63.79 90.05 C56.04 93.1, 44.77 94.66, 36.46 92.76 C28.14 90.87, 19.7 84.55, 13.9 78.67 C8.09 72.79, 3.61 65.64, 1.62 57.47 C-0.37 49.31, -4.67 39.42, 1.95 29.71 C8.58 20, 30.66 2.92, 41.36 -0.78 C52.06 -4.48, 66 6.54, 66.16 7.51 M82.92 16.79 C88.13 22.99, 90.52 33.99, 91.19 42.53 C91.86 51.06, 90.85 61.04, 86.94 68.02 C83.04 75, 75.53 80.64, 67.74 84.38 C59.96 88.13, 48.87 90.62, 40.24 90.47 C31.6 90.32, 22.09 88.01, 15.95 83.51 C9.81 79.01, 5.5 71.91, 3.41 63.47 C1.32 55.02, 1.62 41.68, 3.4 32.85 C5.18 24.03, 8.89 16.02, 14.11 10.49 C19.33 4.97, 26.86 1.14, 34.72 -0.29 C42.59 -1.71, 53.62 -1.83, 61.31 1.95 C68.99 5.73, 77.16 19.38, 80.84 22.41 C84.51 25.44, 83.99 20.64, 83.34 20.16" stroke="#1971c2" stroke-width="4" fill="none"></path></g><g transform="translate(229.11806763399545 612.1802733942645) rotate(0 17.10071563720703 27.23684210526318)"><text x="17.10071563720703" y="43.57987253289476" font-family="Helvetica, Segoe UI Emoji" font-size="47.368421052631604px" fill="#1971c2" text-anchor="middle" style="white-space: pre;" direction="ltr" dominant-baseline="alphabetic">D</text></g><g transform="translate(590.4025621180808 594.444027539372) rotate(0 137.862060546875 45)"><text x="137.862060546875" y="31.536" font-family="Virgil, Segoe UI Emoji" font-size="36px" fill="#1971c2" text-anchor="middle" style="white-space: pre;" direction="ltr" dominant-baseline="alphabetic">DISTRIBUTED</text><text x="137.862060546875" y="76.536" font-family="Virgil, Segoe UI Emoji" font-size="36px" fill="#1971c2" text-anchor="middle" style="white-space: pre;" direction="ltr" dominant-baseline="alphabetic">HASH TABLE</text></g><g stroke-linecap="round" transform="translate(1165.3197224852324 585.0845859442495) rotate(0 45.596320278967596 49)"><path d="M61.36 4.66 C69.04 6.8, 77.3 10.74, 82.3 17.73 C87.29 24.72, 90.52 37.34, 91.35 46.59 C92.17 55.83, 91.2 65.41, 87.23 73.18 C83.26 80.94, 74.95 89.18, 67.54 93.19 C60.13 97.2, 50.84 97.88, 42.78 97.22 C34.72 96.55, 25.86 94.49, 19.17 89.2 C12.48 83.91, 5.67 73.96, 2.63 65.49 C-0.41 57.03, -0.73 46.58, 0.95 38.39 C2.63 30.19, 6.94 22.46, 12.74 16.32 C18.54 10.19, 26.52 3.5, 35.77 1.57 C45.02 -0.35, 62.64 3.41, 68.25 4.76 C73.86 6.11, 70.4 8.79, 69.44 9.65 M25.84 3.1 C31.96 -1.46, 40.99 -2.55, 48.7 -1.13 C56.42 0.3, 65.33 5.6, 72.13 11.64 C78.93 17.68, 86.17 27.37, 89.5 35.09 C92.82 42.8, 94.13 50.11, 92.09 57.94 C90.06 65.76, 83.91 75.69, 77.28 82.02 C70.66 88.35, 60.59 94.06, 52.35 95.93 C44.1 97.8, 35.4 95.79, 27.82 93.26 C20.25 90.74, 11.29 87.66, 6.9 80.78 C2.52 73.9, 2.01 61.73, 1.51 51.99 C1 42.26, 0.39 29.95, 3.86 22.35 C7.33 14.75, 18.83 9.4, 22.32 6.4 C25.82 3.4, 24.52 4.1, 24.84 4.36" stroke="#1971c2" stroke-width="4" fill="none"></path></g><g transform="translate(1193.6193768283547 604.5205641924244) rotate(0 17.055198669433594 29.415789473684185)"><text x="17.055198669433594" y="47.06626233552632" font-family="Helvetica, Segoe UI Emoji" font-size="51.15789473684212px" fill="#1971c2" text-anchor="middle" style="white-space: pre;" direction="ltr" dominant-baseline="alphabetic">E</text></g><g stroke-linecap="round" transform="translate(588.7540285212567 350.50806227310864) rotate(0 8.868169556217026 8.81233215213581)"><path d="M12.41 0.92 C14.1 1.45, 15.62 2.5, 16.48 4.05 C17.34 5.61, 17.93 8.15, 17.56 10.23 C17.18 12.3, 15.68 15.25, 14.22 16.5 C12.76 17.76, 10.51 18, 8.78 17.76 C7.05 17.51, 5.41 16.29, 3.84 15.01 C2.26 13.73, -0.13 11.86, -0.69 10.06 C-1.24 8.25, -0.57 5.65, 0.5 4.16 C1.56 2.67, 3.63 1.53, 5.71 1.12 C7.79 0.71, 11.69 1.61, 12.97 1.72 C14.25 1.83, 13.46 1.8, 13.38 1.77 M12.05 -0.81 C13.74 -0.87, 15.23 0.97, 15.98 2.58 C16.73 4.19, 16.78 6.94, 16.55 8.88 C16.32 10.82, 15.9 12.53, 14.62 14.23 C13.35 15.92, 10.56 18.72, 8.89 19.05 C7.22 19.38, 6.22 17.72, 4.63 16.2 C3.04 14.69, 0.14 11.72, -0.66 9.95 C-1.47 8.19, -1.17 7.29, -0.22 5.6 C0.73 3.9, 3.35 0.86, 5.04 -0.2 C6.72 -1.26, 8.81 -1.1, 9.91 -0.77 C11.01 -0.44, 11.29 1.65, 11.61 1.8" stroke="#9c36b5" stroke-width="4" fill="none"></path></g><g mask="url(#mask-ZvxnSmtaxYlCZMOWYpWnJ)" stroke-linecap="round"><g transform="translate(282.33747088298924 609.2443420924687) rotate(0 155.97051002433545 -125.12963809793268)"><path d="M0 0 C17.22 -30.06, 51.33 -138.65, 103.32 -180.36 C155.31 -222.07, 277.17 -238.61, 311.94 -250.26 M0 0 C17.22 -30.06, 51.33 -138.65, 103.32 -180.36 C155.31 -222.07, 277.17 -238.61, 311.94 -250.26" stroke="#9c36b5" stroke-width="4" fill="none"></path></g><g transform="translate(282.33747088298924 609.2443420924687) rotate(0 155.97051002433545 -125.12963809793268)"><path d="M291.15 -236.38 C298.84 -241.51, 306.52 -246.64, 311.94 -250.26 M291.15 -236.38 C296.86 -240.19, 302.57 -244, 311.94 -250.26" stroke="#9c36b5" stroke-width="4" fill="none"></path></g><g transform="translate(282.33747088298924 609.2443420924687) rotate(0 155.97051002433545 -125.12963809793268)"><path d="M287.09 -252.99 C296.28 -251.98, 305.47 -250.97, 311.94 -250.26 M287.09 -252.99 C293.91 -252.24, 300.74 -251.49, 311.94 -250.26" stroke="#9c36b5" stroke-width="4" fill="none"></path></g></g><mask id="mask-ZvxnSmtaxYlCZMOWYpWnJ"><rect x="0" y="0" fill="#fff" width="694.2784909316599" height="959.5036182883341"></rect><rect x="319.50595906637545" y="393.88700128585333" fill="#000" width="132.30056762695312" height="70" opacity="1"></rect></mask><g transform="translate(319.50595906637545 393.88700128585333) rotate(0 118.80202184094924 90.22770270868273)"><text x="66.15028381347656" y="24.528" font-family="Virgil, Segoe UI Emoji" font-size="28px" fill="#9c36b5" text-anchor="middle" style="white-space: pre;" direction="ltr" dominant-baseline="alphabetic">define job</text><text x="66.15028381347656" y="59.528" font-family="Virgil, Segoe UI Emoji" font-size="28px" fill="#9c36b5" text-anchor="middle" style="white-space: pre;" direction="ltr" dominant-baseline="alphabetic">body</text></g><g stroke-linecap="round"><g transform="translate(949.503690203594 426.70992639707015) rotate(0 -76.13422619634434 -43.68487000183063)"><path d="M0 0 C-15.33 -2.35, -66.61 0.44, -91.99 -14.13 C-117.37 -28.69, -142.22 -75.16, -152.27 -87.37 M0 0 C-15.33 -2.35, -66.61 0.44, -91.99 -14.13 C-117.37 -28.69, -142.22 -75.16, -152.27 -87.37" stroke="#099268" stroke-width="4" fill="none"></path></g><g transform="translate(949.503690203594 426.70992639707015) rotate(0 -76.13422619634434 -43.68487000183063)"><path d="M-131.93 -72.83 C-139.63 -78.33, -147.32 -83.84, -152.27 -87.37 M-131.93 -72.83 C-138.09 -77.24, -144.25 -81.64, -152.27 -87.37" stroke="#099268" stroke-width="4" fill="none"></path></g><g transform="translate(949.503690203594 426.70992639707015) rotate(0 -76.13422619634434 -43.68487000183063)"><path d="M-146.03 -63.16 C-148.39 -72.32, -150.75 -81.48, -152.27 -87.37 M-146.03 -63.16 C-147.92 -70.49, -149.81 -77.83, -152.27 -87.37" stroke="#099268" stroke-width="4" fill="none"></path></g></g><mask></mask><g stroke-linecap="round"><g transform="translate(798.217532590791 343.537070733066) rotate(0 -141.45044830354482 40.27408597531485)"><path d="M0 0 C-19.78 12.41, -71.53 61.05, -118.68 74.48 C-165.83 87.9, -255.53 79.54, -282.9 80.55 M0 0 C-19.78 12.41, -71.53 61.05, -118.68 74.48 C-165.83 87.9, -255.53 79.54, -282.9 80.55" stroke="#099268" stroke-width="4" fill="none"></path></g><g transform="translate(798.217532590791 343.537070733066) rotate(0 -141.45044830354482 40.27408597531485)"><path d="M-259.24 72.47 C-265.5 74.61, -271.76 76.75, -282.9 80.55 M-259.24 72.47 C-266.22 74.86, -273.2 77.24, -282.9 80.55" stroke="#099268" stroke-width="4" fill="none"></path></g><g transform="translate(798.217532590791 343.537070733066) rotate(0 -141.45044830354482 40.27408597531485)"><path d="M-259.59 89.57 C-265.75 87.18, -271.92 84.8, -282.9 80.55 M-259.59 89.57 C-266.47 86.91, -273.35 84.25, -282.9 80.55" stroke="#099268" stroke-width="4" fill="none"></path></g></g><mask></mask><g stroke-linecap="round"><g transform="translate(514.3343412038157 422.83524268369547) rotate(0 41.747528145143406 -29.468843396571742)"><path d="M0 0 C8.56 -3.23, 37.43 -9.55, 51.35 -19.38 C65.27 -29.2, 78.14 -52.34, 83.5 -58.94 M0 0 C8.56 -3.23, 37.43 -9.55, 51.35 -19.38 C65.27 -29.2, 78.14 -52.34, 83.5 -58.94" stroke="#099268" stroke-width="4" fill="none"></path></g><g transform="translate(514.3343412038157 422.83524268369547) rotate(0 41.747528145143406 -29.468843396571742)"><path d="M77.1 -34.77 C79.18 -42.63, 81.26 -50.48, 83.5 -58.94 M77.1 -34.77 C79.2 -42.73, 81.31 -50.69, 83.5 -58.94" stroke="#099268" stroke-width="4" fill="none"></path></g><g transform="translate(514.3343412038157 422.83524268369547) rotate(0 41.747528145143406 -29.468843396571742)"><path d="M63.06 -44.54 C69.7 -49.22, 76.35 -53.9, 83.5 -58.94 M63.06 -44.54 C69.79 -49.28, 76.52 -54.02, 83.5 -58.94" stroke="#099268" stroke-width="4" fill="none"></path></g></g><mask></mask><g mask="url(#mask-SHnxnxEz1llVgNnqELYbv)" stroke-linecap="round"><g transform="translate(1172.6363734338424 594.859564118613) rotate(0 -110.71627245579407 -85.50197456664955)"><path d="M0 0 C-11.77 -16, -33.71 -67.48, -70.61 -95.98 C-107.52 -124.48, -196.3 -158.5, -221.43 -171 M0 0 C-11.77 -16, -33.71 -67.48, -70.61 -95.98 C-107.52 -124.48, -196.3 -158.5, -221.43 -171" stroke="#099268" stroke-width="4" fill="none"></path></g><g transform="translate(1172.6363734338424 594.859564118613) rotate(0 -110.71627245579407 -85.50197456664955)"><path d="M-196.49 -169.26 C-202.76 -169.7, -209.03 -170.14, -221.43 -171 M-196.49 -169.26 C-202.07 -169.65, -207.65 -170.04, -221.43 -171" stroke="#099268" stroke-width="4" fill="none"></path></g><g transform="translate(1172.6363734338424 594.859564118613) rotate(0 -110.71627245579407 -85.50197456664955)"><path d="M-203.45 -153.64 C-207.97 -158, -212.49 -162.37, -221.43 -171 M-203.45 -153.64 C-207.47 -157.52, -211.49 -161.4, -221.43 -171" stroke="#099268" stroke-width="4" fill="none"></path></g></g><mask id="mask-SHnxnxEz1llVgNnqELYbv"><rect x="0" y="0" fill="#fff" width="1494.0689183454306" height="865.8635132519121"></rect><rect x="1044.5804936754257" y="463.87935529749507" fill="#000" width="114.88449096679688" height="70" opacity="1"></rect></mask><g transform="translate(1044.5804936754248 463.87935529749507) rotate(0 17.339607302623108 45.47823425446836)"><text x="57.44224548339844" y="24.528" font-family="Virgil, Segoe UI Emoji" font-size="28px" fill="#099268" text-anchor="middle" style="white-space: pre;" direction="ltr" dominant-baseline="alphabetic">read job</text><text x="57.44224548339844" y="59.528" font-family="Virgil, Segoe UI Emoji" font-size="28px" fill="#099268" text-anchor="middle" style="white-space: pre;" direction="ltr" dominant-baseline="alphabetic">body</text></g><g transform="translate(17.98785757083988 616.9440279685716) rotate(0 83.57402801513672 22.5)"><text x="83.57402801513672" y="31.536" font-family="Virgil, Segoe UI Emoji" font-size="36px" fill="#1971c2" text-anchor="middle" style="white-space: pre;" direction="ltr" dominant-baseline="alphabetic">delegator</text></g><g transform="translate(1269.196172230259 611.5845857435022) rotate(0 76.95002746582031 22.5)"><text x="76.95002746582031" y="31.536" font-family="Virgil, Segoe UI Emoji" font-size="36px" fill="#1971c2" text-anchor="middle" style="white-space: pre;" direction="ltr" dominant-baseline="alphabetic">executor</text></g><g stroke-linecap="round" transform="translate(448.6760744340686 10) rotate(0 279.58854810418825 59.69402753937186)"><path d="M29.85 0 C183.35 0.82, 337.81 0.51, 529.33 0 M29.85 0 C136.38 2.13, 243.86 2.43, 529.33 0 M529.33 0 C552 -2.84, 559.03 7.15, 559.18 29.85 M529.33 0 C545.65 -1.67, 557.25 7.79, 559.18 29.85 M559.18 29.85 C560.57 41.44, 556.9 55.79, 559.18 89.54 M559.18 29.85 C557.76 47.82, 560.09 70.37, 559.18 89.54 M559.18 89.54 C562.06 106.86, 550.44 123.2, 529.33 119.39 M559.18 89.54 C561.79 110.88, 546.16 122.31, 529.33 119.39 M529.33 119.39 C427.12 121.16, 323.13 118.3, 29.85 119.39 M529.33 119.39 C392.59 123.71, 257.2 122.74, 29.85 119.39 M29.85 119.39 C13.72 116.88, -2.62 113.38, 0 89.54 M29.85 119.39 C6.41 122.08, -1.84 111.13, 0 89.54 M0 89.54 C0.74 67.3, 2.72 48.86, 0 29.85 M0 89.54 C0.65 73.74, 0.16 58.81, 0 29.85 M0 29.85 C1.39 6.7, 10.21 -1.77, 29.85 0 M0 29.85 C1.59 6.53, 13.72 -2.25, 29.85 0" stroke="#2f9e44" stroke-width="4" fill="none"></path></g><g transform="translate(529.2385609129446 47.194027730226935) rotate(0 199.02606201171875 22.5)"><text x="199.02606201171875" y="31.536" font-family="Virgil, Segoe UI Emoji" font-size="36px" fill="#2f9e44" text-anchor="middle" style="white-space: pre;" direction="ltr" dominant-baseline="alphabetic">JOB FACT REGISTRY</text></g><g mask="url(#mask-hXpOoBL3TTxC9NHuShuvr)" stroke-linecap="round"><g transform="translate(240.4264232341484 592.686119985621) rotate(0 103.6829075785588 -231.19755938397236)"><path d="M0 0 C11.31 -44.68, 33.32 -190.98, 67.88 -268.05 C102.44 -345.12, 184.12 -430, 207.37 -462.4 M0 0 C11.31 -44.68, 33.32 -190.98, 67.88 -268.05 C102.44 -345.12, 184.12 -430, 207.37 -462.4" stroke="#9c36b5" stroke-width="4" fill="none"></path></g><g transform="translate(240.4264232341484 592.686119985621) rotate(0 103.6829075785588 -231.19755938397236)"><path d="M199.2 -438.77 C202.23 -447.53, 205.26 -456.3, 207.37 -462.4 M199.2 -438.77 C202.05 -447.01, 204.89 -455.25, 207.37 -462.4" stroke="#9c36b5" stroke-width="4" fill="none"></path></g><g transform="translate(240.4264232341484 592.686119985621) rotate(0 103.6829075785588 -231.19755938397236)"><path d="M185.92 -449.55 C193.88 -454.31, 201.84 -459.08, 207.37 -462.4 M185.92 -449.55 C193.4 -454.03, 200.88 -458.51, 207.37 -462.4" stroke="#9c36b5" stroke-width="4" fill="none"></path></g></g><mask id="mask-hXpOoBL3TTxC9NHuShuvr"><rect x="0" y="0" fill="#fff" width="547.7922383912661" height="1155.0812387535657"></rect><rect x="215.58084968760568" y="307.1352896111107" fill="#000" width="185.4447784423828" height="35" opacity="1"></rect></mask><g transform="translate(215.58084968760568 307.1352896111107) rotate(0 128.5284811251015 54.35327099053791)"><text x="92.7223892211914" y="24.528" font-family="Virgil, Segoe UI Emoji" font-size="28px" fill="#9c36b5" text-anchor="middle" style="white-space: pre;" direction="ltr" dominant-baseline="alphabetic">deposit funds</text></g><g mask="url(#mask-A-N0TpsbRp9QEzSk8gEEB)" stroke-linecap="round"><g transform="translate(1210.3665743549159 580.1199379706211) rotate(0 -106.44948519456307 -226.5230604707192)"><path d="M0 0 C-8.23 -41.06, -13.9 -170.84, -49.38 -246.35 C-84.87 -321.85, -185.65 -418.6, -212.9 -453.05 M0 0 C-8.23 -41.06, -13.9 -170.84, -49.38 -246.35 C-84.87 -321.85, -185.65 -418.6, -212.9 -453.05" stroke="#099268" stroke-width="4" fill="none"></path></g><g transform="translate(1210.3665743549159 580.1199379706211) rotate(0 -106.44948519456307 -226.5230604707192)"><path d="M-190.88 -441.2 C-196.93 -444.45, -202.97 -447.7, -212.9 -453.05 M-190.88 -441.2 C-195.92 -443.91, -200.96 -446.63, -212.9 -453.05" stroke="#099268" stroke-width="4" fill="none"></path></g><g transform="translate(1210.3665743549159 580.1199379706211) rotate(0 -106.44948519456307 -226.5230604707192)"><path d="M-203.65 -429.82 C-206.19 -436.2, -208.73 -442.57, -212.9 -453.05 M-203.65 -429.82 C-205.76 -435.14, -207.88 -440.46, -212.9 -453.05" stroke="#099268" stroke-width="4" fill="none"></path></g></g><mask id="mask-A-N0TpsbRp9QEzSk8gEEB"><rect x="0" y="0" fill="#fff" width="1523.265544744042" height="1133.1660589120595"></rect><rect x="1016.2509362910259" y="281.2745724046315" fill="#000" width="289.4652099609375" height="105" opacity="1"></rect></mask><g transform="translate(1016.250936291025 281.2745724046315) rotate(0 87.66615286932733 72.3223050952704)"><text x="144.73260498046875" y="24.528" font-family="Virgil, Segoe UI Emoji" font-size="28px" fill="#099268" text-anchor="middle" style="white-space: pre;" direction="ltr" dominant-baseline="alphabetic">submit and verify </text><text x="144.73260498046875" y="59.528" font-family="Virgil, Segoe UI Emoji" font-size="28px" fill="#099268" text-anchor="middle" style="white-space: pre;" direction="ltr" dominant-baseline="alphabetic">bootloaded finished </text><text x="144.73260498046875" y="94.52799999999999" font-family="Virgil, Segoe UI Emoji" font-size="28px" fill="#099268" text-anchor="middle" style="white-space: pre;" direction="ltr" dominant-baseline="alphabetic">job - collect payment</text></g><g stroke-linecap="round" transform="translate(498.11368462437076 412.11998891971643) rotate(0 8.868169556217026 8.81233215213581)"><path d="M8.34 -0.42 C10.18 -0.53, 12.27 0.02, 13.97 1.35 C15.68 2.69, 18.1 5.76, 18.56 7.6 C19.01 9.44, 17.91 10.94, 16.68 12.41 C15.46 13.87, 12.93 15.58, 11.19 16.38 C9.45 17.18, 8.01 17.81, 6.23 17.19 C4.46 16.56, 1.68 14.18, 0.54 12.62 C-0.59 11.07, -1.15 9.5, -0.58 7.87 C-0.01 6.25, 2.41 4.15, 3.96 2.89 C5.51 1.63, 7.56 0.66, 8.73 0.32 C9.9 -0.03, 10.82 0.83, 10.97 0.82 M11.79 1.3 C13.99 1.52, 16.95 2.84, 17.7 4.23 C18.44 5.62, 16.74 7.56, 16.25 9.67 C15.76 11.78, 16.04 15.44, 14.76 16.87 C13.47 18.31, 10.22 18.66, 8.55 18.27 C6.87 17.89, 5.85 16.01, 4.69 14.58 C3.54 13.14, 2.37 11.08, 1.6 9.67 C0.83 8.26, -0.4 7.48, 0.07 6.12 C0.54 4.76, 2.6 2.36, 4.43 1.51 C6.25 0.65, 9.72 1.02, 11.04 0.99 C12.36 0.96, 12.47 1.2, 12.33 1.33" stroke="#1971c2" stroke-width="4" fill="none"></path></g><g stroke-linecap="round" transform="translate(790.3449407250678 328.4995993728303) rotate(0 8.868169556217026 8.81233215213581)"><path d="M5.04 0.05 C6.89 -0.58, 10.65 0.33, 12.55 0.89 C14.45 1.46, 15.71 2.03, 16.42 3.43 C17.13 4.84, 17.02 7.35, 16.79 9.34 C16.57 11.33, 16.46 14.11, 15.08 15.37 C13.69 16.63, 10.55 16.74, 8.49 16.88 C6.44 17.03, 3.99 17.13, 2.76 16.22 C1.53 15.3, 1.51 13.27, 1.12 11.41 C0.72 9.54, -0.61 6.75, 0.37 5.02 C1.36 3.28, 5.91 1.89, 7.01 1.02 C8.1 0.15, 6.98 -0.1, 6.97 -0.21 M14.35 1.11 C15.74 1.65, 15.23 3.15, 15.71 5.14 C16.2 7.14, 17.73 11.09, 17.27 13.06 C16.81 15.03, 14.33 16.41, 12.94 16.96 C11.55 17.51, 10.45 16.91, 8.91 16.38 C7.36 15.84, 5.32 14.71, 3.67 13.74 C2.02 12.77, -0.49 12.14, -0.98 10.56 C-1.47 8.98, -0.49 5.87, 0.75 4.24 C1.99 2.6, 4.29 1.14, 6.46 0.73 C8.64 0.32, 12.91 1.61, 13.81 1.77 C14.71 1.93, 12.13 1.48, 11.85 1.7" stroke="#1971c2" stroke-width="4" fill="none"></path></g><g stroke-linecap="round" transform="translate(941.2424607099679 415.2362211437601) rotate(0 8.868169556217026 8.81233215213581)"><path d="M8.01 0.67 C9.84 0.18, 11.71 -0.34, 13.08 0.36 C14.46 1.06, 15.48 2.98, 16.23 4.85 C16.97 6.72, 18.11 9.79, 17.54 11.57 C16.98 13.36, 14.61 14.48, 12.84 15.55 C11.08 16.62, 8.56 17.99, 6.95 17.97 C5.34 17.95, 4.46 16.85, 3.19 15.43 C1.93 14.01, -0.58 11.34, -0.64 9.42 C-0.7 7.51, 1.39 5.62, 2.83 3.96 C4.27 2.29, 6.97 0.19, 8 -0.59 C9.02 -1.37, 8.87 -1.02, 9 -0.74 M9.98 -0.04 C11.53 0.59, 15.05 3.68, 16.24 5.43 C17.42 7.18, 17.08 9.02, 17.08 10.45 C17.09 11.89, 17.34 13, 16.29 14.04 C15.25 15.07, 13.11 16.11, 10.84 16.67 C8.56 17.22, 4.57 18.2, 2.62 17.38 C0.66 16.56, -0.52 13.75, -0.91 11.76 C-1.29 9.77, -0.84 7.16, 0.33 5.44 C1.49 3.72, 4.41 2.22, 6.07 1.46 C7.72 0.69, 9.45 0.8, 10.24 0.85 C11.03 0.9, 10.6 1.78, 10.81 1.77" stroke="#099268" stroke-width="4" fill="none"></path></g><g mask="url(#mask-fnWteLdqzYEr5XocmG3TO)" stroke-linecap="round"><g transform="translate(439.20532791626965 79.40904586983288) rotate(0 -168.86447044617194 261.1447620621087)"><path d="M0 0 C-56.29 22.48, -299.23 47.86, -337.73 134.91 C-376.23 221.96, -248.77 457.73, -230.98 522.29 M0 0 C-56.29 22.48, -299.23 47.86, -337.73 134.91 C-376.23 221.96, -248.77 457.73, -230.98 522.29" stroke="#e64980" stroke-width="4" fill="none"></path></g><g transform="translate(439.20532791626965 79.40904586983288) rotate(0 -168.86447044617194 261.1447620621087)"><path d="M-247.63 503.64 C-243.93 507.78, -240.23 511.93, -230.98 522.29 M-247.63 503.64 C-242.54 509.34, -237.46 515.04, -230.98 522.29" stroke="#e64980" stroke-width="4" fill="none"></path></g><g transform="translate(439.20532791626965 79.40904586983288) rotate(0 -168.86447044617194 261.1447620621087)"><path d="M-231.75 497.3 C-231.58 502.85, -231.41 508.41, -230.98 522.29 M-231.75 497.3 C-231.51 504.94, -231.28 512.57, -230.98 522.29" stroke="#e64980" stroke-width="4" fill="none"></path></g></g><mask id="mask-fnWteLdqzYEr5XocmG3TO"><rect x="0" y="0" fill="#fff" width="876.9342688086136" height="701.6985699940503"></rect><rect x="10" y="196.81896369729088" fill="#000" width="182.95277404785156" height="35" opacity="1"></rect></mask><g transform="translate(10 196.81896369729088) rotate(0 256.7380211609725 143.73484423465072)"><text x="91.47638702392578" y="24.528" font-family="Virgil, Segoe UI Emoji" font-size="28px" fill="#e64980" text-anchor="middle" style="white-space: pre;" direction="ltr" dominant-baseline="alphabetic">event stream</text></g><g mask="url(#mask-XHdGqfjQoLaIKrWzblD4s)" stroke-linecap="round"><g transform="translate(295.2263870239258 660.8189636972911) rotate(0 432.5 65.625)"><path d="M0 0 C72.29 22.08, 289.58 132.71, 433.75 132.5 C577.92 132.29, 793.13 21.04, 865 -1.25 M0 0 C72.29 22.08, 289.58 132.71, 433.75 132.5 C577.92 132.29, 793.13 21.04, 865 -1.25" stroke="#e03131" stroke-width="4" fill="none"></path></g><g transform="translate(295.2263870239258 660.8189636972911) rotate(0 432.5 65.625)"><path d="M846.31 15.35 C852.81 9.58, 859.31 3.81, 865 -1.25 M846.31 15.35 C850.56 11.58, 854.8 7.81, 865 -1.25" stroke="#e03131" stroke-width="4" fill="none"></path></g><g transform="translate(295.2263870239258 660.8189636972911) rotate(0 432.5 65.625)"><path d="M840.01 -0.54 C848.7 -0.79, 857.39 -1.03, 865 -1.25 M840.01 -0.54 C845.69 -0.7, 851.36 -0.86, 865 -1.25" stroke="#e03131" stroke-width="4" fill="none"></path></g></g><mask id="mask-XHdGqfjQoLaIKrWzblD4s"><rect x="0" y="0" fill="#fff" width="1260.2263870239258" height="894.5689636972911"></rect><rect x="579.8897476196289" y="775.8189636972911" fill="#000" width="298.17327880859375" height="35" opacity="1"></rect></mask><g transform="translate(579.8897476196289 775.8189636972911) rotate(0 147.83663940429688 -49.37485306563201)"><text x="149.08663940429688" y="24.528" font-family="Virgil, Segoe UI Emoji" font-size="28px" fill="#e03131" text-anchor="middle" style="white-space: pre;" direction="ltr" dominant-baseline="alphabetic">job header broadcast</text></g><g mask="url(#mask-VKBn736jKnG-bHq8RpEqP)" stroke-linecap="round"><g transform="translate(1010.2263870239258 70.81896369729111) rotate(0 171.87500000000023 263.125)"><path d="M0 0 C57.29 25.42, 303.96 64.79, 343.75 152.5 C383.54 240.21, 256.25 463.96, 238.75 526.25 M0 0 C57.29 25.42, 303.96 64.79, 343.75 152.5 C383.54 240.21, 256.25 463.96, 238.75 526.25" stroke="#e64980" stroke-width="4" fill="none"></path></g><g transform="translate(1010.2263870239258 70.81896369729111) rotate(0 171.87500000000023 263.125)"><path d="M239.83 501.27 C239.5 508.87, 239.17 516.46, 238.75 526.25 M239.83 501.27 C239.58 507.16, 239.32 513.04, 238.75 526.25" stroke="#e64980" stroke-width="4" fill="none"></path></g><g transform="translate(1010.2263870239258 70.81896369729111) rotate(0 171.87500000000023 263.125)"><path d="M255.63 507.81 C250.5 513.42, 245.37 519.02, 238.75 526.25 M255.63 507.81 C251.66 512.16, 247.68 516.5, 238.75 526.25" stroke="#e64980" stroke-width="4" fill="none"></path></g></g><mask id="mask-VKBn736jKnG-bHq8RpEqP"><rect x="0" y="0" fill="#fff" width="1453.9763870239258" height="697.0689636972911"></rect><rect x="1262.5000000000005" y="205.8189636972911" fill="#000" width="182.95277404785156" height="35" opacity="1"></rect></mask><g transform="translate(1262.5 205.8189636972911) rotate(0 -76.56761479586271 128.125)"><text x="91.47638702392578" y="24.528" font-family="Virgil, Segoe UI Emoji" font-size="28px" fill="#e64980" text-anchor="middle" style="white-space: pre;" direction="ltr" dominant-baseline="alphabetic">event stream</text></g></svg>